<?xml version="1.0" encoding="UTF-8" standalone="no"?>
<!DOCTYPE svg PUBLIC "-//W3C//DTD SVG 1.1//EN" "http://www.w3.org/Graphics/SVG/1.1/DTD/svg11.dtd">
<svg width="100%" height="100%" viewBox="0 0 91 67" version="1.1" xmlns="http://www.w3.org/2000/svg" xmlns:xlink="http://www.w3.org/1999/xlink" xml:space="preserve" xmlns:serif="http://www.serif.com/" style="fill-rule:evenodd;clip-rule:evenodd;stroke-linejoin:round;stroke-miterlimit:2;">
    <g id="Artboard1" transform="matrix(1,0,0,1.01002,-5.0301,-18.5591)">
        <rect x="5.03" y="18.375" width="90.633" height="66.308" style="fill:none;"/>
        <clipPath id="_clip1">
            <rect x="5.03" y="18.375" width="90.633" height="66.308"/>
        </clipPath>
        <g clip-path="url(#_clip1)">
            <g transform="matrix(1,0,0,0.99008,0.0300998,0.553561)">
                <path d="M20.622,23.087C21.777,20.585 22.113,18.375 22.113,18.375C22.113,18.375 20.262,19.321 18.141,21.542C16.235,23.805 14.189,27.539 14.995,31.859C17.892,28.801 19.654,25.744 20.622,23.087Z" style="fill-rule:nonzero;"/>
                <path d="M11.796,50.231L11.926,52.028C11.958,52.41 12.274,52.702 12.666,52.648C13.046,52.617 13.341,52.255 13.309,51.886L13.181,50.094C15.635,48.097 17.151,45.57 18.021,43.395C18.445,42.199 18.825,41.122 19.098,40.349C19.293,39.544 19.425,39.054 19.425,39.054C19.425,39.054 17.706,39.5 15.758,41.198C14.403,42.561 12.659,44.93 12.373,48.299C12.368,48.299 12.363,48.296 12.357,48.296C11.898,44.944 11.095,42.349 9.923,40.372C8.771,37.999 7.408,36.639 7.408,36.639C7.408,36.639 7.312,37.281 7.159,38.304C7.05,39.339 6.919,40.754 7.246,42.331C7.684,45.212 8.923,48.474 11.796,50.231Z" style="fill-rule:nonzero;"/>
                <path d="M12.143,40.763C12.058,41.155 12.329,41.503 12.721,41.558C13.091,41.611 13.429,41.329 13.514,40.959L13.855,39.23C16.653,37.91 18.287,35.735 19.719,33.938C20.449,32.926 20.938,31.958 21.255,31.25C21.613,30.553 21.854,30.139 21.854,30.139C21.854,30.139 20.003,30.118 18.065,31.412C16.442,32.421 14.481,34.253 13.462,37.256C13.447,37.254 13.434,37.251 13.42,37.25C13.694,34.07 13.35,31.522 12.754,29.464C11.927,26.939 11.078,25.436 11.078,25.436C10.807,25.248 7.655,34.354 12.464,39.092L12.143,40.763Z" style="fill-rule:nonzero;"/>
                <path d="M20.661,71.29C21.271,71.919 22.399,73.059 22.462,72.979C22.789,73.217 23.245,73.175 23.475,72.872C23.703,72.567 23.66,72.131 23.355,71.914C23.289,71.977 22.159,70.843 21.588,70.263C22.977,62.435 20.596,56.747 20.808,56.305C20.808,56.305 18.999,57.656 18.272,60.202C17.43,62.459 17.363,66.406 20.316,69.875C20.302,69.889 20.286,69.897 20.273,69.911C20.25,69.932 20.241,69.962 20.223,69.985C16.914,66.854 14.158,64.646 11.643,62.977C8.694,61.18 6.756,60.332 6.756,60.321C6.603,60.289 7.616,63.598 10.248,66.863C12.668,69.845 16.726,72.08 20.661,71.29Z" style="fill-rule:nonzero;"/>
                <path d="M30.39,77.736L32.89,78.694C33.259,78.857 33.672,78.618 33.781,78.268C33.891,77.878 33.672,77.529 33.325,77.376L30.889,76.433C30.104,72.359 28.476,69.207 27.162,67.016C25.879,64.555 24.552,63.054 24.616,62.966C24.616,62.966 23.355,64.881 23.572,67.788C23.532,70.563 25.315,74.297 29.775,76.6C29.752,76.633 29.723,76.662 29.704,76.701C25.13,74.793 21.19,73.948 18.097,73.154C14.562,72.5 12.188,72.381 12.188,72.381C12.188,72.381 12.622,73.175 13.711,74.177C14.811,75.134 16.301,76.505 18.229,77.529C21.937,79.461 26.814,80.178 30.39,77.736Z" style="fill-rule:nonzero;"/>
                <path d="M45.004,79.424L42.403,79.238C40.443,75.532 37.599,73.142 35.371,71.522C33.042,69.714 31.235,68.712 31.235,68.712C31.235,68.712 31.179,69.234 31.256,70.127C31.32,71.02 31.528,72.324 32.258,73.6C33.423,76.063 36.404,78.928 41.344,79.746C41.335,79.776 41.317,79.804 41.313,79.837C41.312,79.842 41.313,79.847 41.312,79.853C36.353,79.457 32.479,80.071 29.318,80.686C25.901,81.482 23.659,82.319 23.659,82.319C23.659,82.307 26.836,84.213 31.06,84.627C35.03,84.944 39.588,83.956 42.276,80.624L44.947,80.817C45.33,80.85 45.665,80.555 45.677,80.164C45.688,79.771 45.383,79.456 45.004,79.424Z" style="fill-rule:nonzero;"/>
                <path d="M14.258,61.729L15.278,64.01C15.442,64.37 15.844,64.534 16.181,64.338C16.519,64.142 16.662,63.706 16.51,63.359L15.531,61.165C17.602,58.013 18.746,54.78 19.122,52.234C19.839,49.404 19.546,47.259 19.665,47.206C19.665,47.206 17.749,48.032 16.106,50.361C14.561,52.393 13.192,55.977 14.545,60.313C14.495,60.318 14.445,60.316 14.397,60.332C12.594,56.184 10.715,53.103 8.934,50.853C6.865,48.36 5.047,47.042 5.047,47.042C5.047,47.042 4.961,47.826 5.177,49.078C5.35,50.328 5.69,52.06 6.266,53.856C7.662,57.261 10.176,60.98 14.258,61.729Z" style="fill-rule:nonzero;"/>
                <path d="M85.699,31.859C86.504,27.539 84.457,23.805 82.542,21.542C80.419,19.321 78.58,18.375 78.58,18.375C78.58,18.375 78.906,20.585 80.061,23.087C81.039,25.744 82.804,28.801 85.699,31.859Z" style="fill-rule:nonzero;"/>
                <path d="M88.33,48.296C88.327,48.296 88.324,48.297 88.32,48.297C88.031,44.93 86.279,42.561 84.924,41.198C82.977,39.5 81.267,39.054 81.267,39.054C81.267,39.054 81.388,39.545 81.596,40.349C81.867,41.122 82.246,42.199 82.672,43.395C83.543,45.569 85.057,48.094 87.508,50.09L87.373,51.886C87.352,52.255 87.646,52.616 88.026,52.648C88.398,52.702 88.744,52.41 88.766,52.028L88.896,50.224C91.763,48.463 93.009,45.208 93.448,42.33C93.785,40.752 93.632,39.337 93.533,38.303C93.381,37.281 93.284,36.638 93.284,36.638C93.284,36.638 91.912,37.999 90.759,40.371C89.588,42.349 88.792,44.944 88.33,48.296Z" style="fill-rule:nonzero;"/>
                <path d="M87.232,37.258C86.21,34.255 84.242,32.423 82.629,31.414C80.691,30.119 78.84,30.141 78.84,30.141C78.84,30.141 79.069,30.555 79.44,31.252C79.755,31.959 80.247,32.928 80.974,33.94C82.409,35.737 84.031,37.912 86.835,39.232L87.169,40.961C87.253,41.331 87.603,41.613 87.973,41.56C88.356,41.505 88.635,41.157 88.55,40.765L88.229,39.096C93.039,34.359 89.888,25.253 89.615,25.44C89.615,25.44 88.767,26.943 87.941,29.468C87.337,31.526 86.996,34.074 87.273,37.255C87.259,37.253 87.246,37.256 87.232,37.258Z" style="fill-rule:nonzero;"/>
                <path d="M89.051,62.978C86.534,64.647 83.767,66.857 80.464,69.99C80.444,69.966 80.433,69.934 80.408,69.912C80.396,69.9 80.383,69.892 80.37,69.88C83.32,66.41 83.264,62.461 82.423,60.203C81.684,57.656 79.887,56.306 79.887,56.306C80.097,56.748 77.718,62.436 79.105,70.264C78.536,70.844 77.406,71.979 77.339,71.915C77.034,72.132 76.982,72.568 77.208,72.873C77.449,73.177 77.905,73.219 78.231,72.98C78.294,73.059 79.422,71.918 80.032,71.291C83.97,72.081 88.026,69.847 90.444,66.864C93.078,63.599 94.09,60.29 93.926,60.322C93.927,60.333 92,61.181 89.051,62.978Z" style="fill-rule:nonzero;"/>
                <path d="M70.989,76.701C70.97,76.663 70.942,76.634 70.92,76.6C75.371,74.296 77.162,70.564 77.121,67.788C77.339,64.881 76.076,62.966 76.076,62.966C76.141,63.054 74.813,64.555 73.53,67.016C72.218,69.207 70.59,72.359 69.802,76.434L67.367,77.376C67.02,77.528 66.803,77.878 66.911,78.268C67.02,78.618 67.434,78.857 67.803,78.694L70.303,77.736C73.878,80.177 78.756,79.461 82.464,77.529C84.38,76.506 85.883,75.134 86.982,74.177C88.06,73.175 88.506,72.381 88.506,72.381C88.506,72.381 86.122,72.5 82.586,73.154C79.493,73.949 75.562,74.794 70.989,76.701Z" style="fill-rule:nonzero;"/>
                <path d="M59.381,79.853L59.381,79.837C59.376,79.805 59.367,79.775 59.36,79.744C64.295,78.925 67.271,76.061 68.436,73.6C69.154,72.325 69.364,71.02 69.437,70.127C69.514,69.234 69.449,68.712 69.449,68.712C69.449,68.712 67.652,69.714 65.322,71.522C63.097,73.142 60.252,75.532 58.293,79.238L55.68,79.424C55.312,79.456 55.006,79.772 55.006,80.163C55.027,80.555 55.354,80.85 55.746,80.816L58.418,80.623C61.106,83.955 65.663,84.943 69.634,84.626C73.857,84.212 77.035,82.307 77.035,82.318C77.035,82.318 74.792,81.481 71.376,80.685C68.215,80.07 64.34,79.457 59.381,79.853Z" style="fill-rule:nonzero;"/>
                <path d="M95.646,47.043C95.646,47.043 93.828,48.361 91.75,50.854C89.977,53.104 88.101,56.185 86.296,60.333C86.252,60.318 86.204,60.32 86.156,60.315C87.501,55.979 86.134,52.395 84.589,50.362C82.944,48.033 81.029,47.207 81.029,47.207C81.148,47.26 80.843,49.405 81.584,52.235C81.951,54.778 83.091,58.007 85.166,61.156L84.175,63.36C84.022,63.707 84.175,64.142 84.501,64.339C84.85,64.535 85.241,64.371 85.417,64.011L86.436,61.73C90.517,60.981 93.033,57.261 94.417,53.858C95.005,52.062 95.343,50.33 95.517,49.08C95.732,47.827 95.646,47.043 95.646,47.043Z" style="fill-rule:nonzero;"/>
            </g>
        </g>
    </g>
</svg>
