<?xml version="1.0" encoding="UTF-8" standalone="no"?>
<!DOCTYPE svg PUBLIC "-//W3C//DTD SVG 1.1//EN" "http://www.w3.org/Graphics/SVG/1.1/DTD/svg11.dtd">
<svg width="100%" height="100%" viewBox="0 0 217 104" version="1.1" xmlns="http://www.w3.org/2000/svg" xmlns:xlink="http://www.w3.org/1999/xlink" xml:space="preserve" xmlns:serif="http://www.serif.com/" style="fill-rule:evenodd;clip-rule:evenodd;stroke-linejoin:round;stroke-miterlimit:2;">
    <rect id="Artboard1" x="0" y="-0" width="216.291" height="103.4" style="fill:none;"/>
    <g id="Layer-1" serif:id="Layer 1" transform="matrix(1,0,0,1,0,1)">
        <g>
            <g transform="matrix(1,0,0,1,2.41,8.84)">
                <path d="M0,22.32L0.26,22.32C2.83,23.67 7.21,24.53 9.79,24.53C13.34,24.53 15.81,23.18 15.81,19.85C15.81,12.37 -0.15,16.03 -0.15,2.52C-0.15,-3.02 3.45,-8.84 12.47,-8.84C15.56,-8.84 19.22,-8.14 21.22,-7.22L21.68,-0.6L21.47,-0.6C19.1,-1.57 15.8,-2.32 13.28,-2.32C9.21,-2.32 7.36,-0.81 7.36,1.88C7.36,8.93 23.38,5.65 23.38,19.05C23.38,24.22 20.44,31.16 10.35,31.16C6.75,31.16 2.06,30.08 0.51,29.06L0,22.33L0,22.32Z" style="fill:white;fill-rule:nonzero;"/>
            </g>
            <g transform="matrix(1,0,0,1,43.81,20.55)">
                <path d="M0,-1.13C3.86,-1.13 6.64,-3.01 6.64,-7.54C6.64,-12.07 4.48,-13.25 0.82,-13.25L-4.9,-13.25L-4.9,-1.14L-0.01,-1.14L0,-1.13ZM-12.87,18.79L-12.87,-19.92L0.67,-19.92C11.9,-19.92 14.88,-14.97 14.88,-7.65C14.88,-2.37 12.41,1.39 8.34,3.49L16.17,18.78L7.57,18.78L1.18,5.27L-4.9,5.27L-4.9,18.78L-12.88,18.78L-12.87,18.79Z" style="fill:white;fill-rule:nonzero;"/>
            </g>
            <g transform="matrix(1,0,0,1,65.18,39.34)">
                <path d="M0,-38.71L23.38,-38.71L23.38,-31.98L7.98,-31.98L7.98,-21.59L21.22,-21.59L21.22,-15.13L7.98,-15.13L7.98,0L0,0L0,-38.71" style="fill:white;fill-rule:nonzero;"/>
            </g>
            <g transform="matrix(1,0,0,1,8.89,53.75)">
                <path d="M0,35.53C-2.77,33.88 -4.94,31.55 -6.52,28.56C-8.1,25.56 -8.89,22.05 -8.89,18.03C-8.89,14.01 -8.06,10.39 -6.39,7.29C-4.72,4.19 -2.42,1.78 0.5,0.07C3.42,-1.64 6.71,-2.49 10.36,-2.49C13.35,-2.49 16.07,-1.92 18.53,-0.79C20.98,0.34 23.01,1.9 24.61,3.87L22.37,5.97C20.91,3.6 19.12,1.74 16.99,0.4C14.87,-0.95 12.55,-1.62 10.05,-1.62C7.3,-1.62 4.85,-0.83 2.69,0.75C0.53,2.33 -1.15,4.52 -2.35,7.32C-3.55,10.12 -4.15,13.32 -4.15,16.91C-4.15,20.75 -3.48,24.11 -2.14,26.98C-0.8,29.85 1.03,32.07 3.37,33.63C5.7,35.19 8.31,35.97 11.2,35.97C13.81,35.97 16.27,35.34 18.58,34.09C20.89,32.83 22.87,30.89 24.5,28.27L25.13,28.65C23.36,31.63 21.14,33.94 18.48,35.57C15.82,37.2 12.77,38.02 9.32,38.02C5.87,38.02 2.77,37.19 0.01,35.54L0,35.53Z" style="fill:white;fill-rule:nonzero;"/>
            </g>
            <g transform="matrix(1,0,0,1,45.07,63.78)">
                <path d="M0,26.16C-1.6,26.16 -2.92,25.67 -3.96,24.71C-5,23.74 -5.52,22.34 -5.52,20.51C-5.52,18.68 -4.96,17.34 -3.83,16.29C-2.71,15.23 -1.16,14.44 0.76,13.92C2.58,13.44 4.86,13.05 7.62,12.76L7.62,22.64C6.66,23.64 5.57,24.45 4.39,25.05C2.89,25.8 1.43,26.18 0,26.18L0,26.16ZM14.2,26.26C13.37,26.26 12.77,26.11 12.41,25.8C12.04,25.5 11.81,25.08 11.73,24.53C11.64,24 11.6,23.2 11.6,22.17L11.6,8.38C11.6,4.94 10.82,2.39 9.28,0.74C7.73,-0.91 5.42,-1.74 2.36,-1.74C0.34,-1.74 -1.44,-1.37 -2.99,-0.66C-4.54,0.06 -6.06,1.14 -7.55,2.57L-7.08,3.17C-5.79,2.02 -4.53,1.18 -3.27,0.66C-2.01,0.15 -0.68,-0.11 0.75,-0.11C2.41,-0.11 3.75,0.24 4.76,0.94C5.77,1.64 6.5,2.63 6.95,3.93C7.41,5.22 7.63,6.86 7.63,8.83L7.63,11.99C5.07,12.19 3.31,12.34 2.36,12.44C-1.33,12.9 -4.23,13.89 -6.32,15.4C-8.43,16.91 -9.48,18.9 -9.48,21.37C-9.48,23.35 -8.81,24.93 -7.47,26.12C-6.12,27.3 -4.38,27.9 -2.22,27.9C-0.23,27.9 1.76,27.41 3.78,26.45C5.24,25.75 6.55,24.83 7.68,23.71C7.76,24.55 7.97,25.36 8.32,26.15C8.78,27.17 9.8,27.69 11.4,27.69C12.1,27.69 12.77,27.57 13.41,27.33C14.06,27.1 14.64,26.83 15.16,26.5L15.16,26.18C14.74,26.25 14.43,26.28 14.22,26.28L14.2,26.26Z" style="fill:white;fill-rule:nonzero;"/>
            </g>
            <g transform="matrix(1,0,0,1,83.36,81.11)">
                <path d="M0,3.22C-0.78,5.3 -1.87,6.92 -3.26,8.07C-4.66,9.22 -6.25,9.78 -8.06,9.78C-9.73,9.78 -11.24,9.3 -12.6,8.33C-13.96,7.37 -15,6.04 -15.73,4.35L-15.73,-13.2C-15.18,-13.87 -14.58,-14.48 -13.93,-15.01C-12.91,-15.86 -11.84,-16.48 -10.75,-16.89C-9.66,-17.31 -8.58,-17.52 -7.54,-17.52C-5.88,-17.52 -4.38,-16.99 -3.06,-15.93C-1.73,-14.86 -0.7,-13.34 0.05,-11.35C0.8,-9.35 1.17,-6.96 1.17,-4.16C1.17,-1.36 0.77,1.13 -0.01,3.21L0,3.22ZM3.96,-12.1C2.94,-14.31 1.52,-16.02 -0.3,-17.24C-2.1,-18.45 -4.12,-19.07 -6.35,-19.07C-7.78,-19.07 -9.15,-18.81 -10.47,-18.29C-11.79,-17.77 -13.02,-17.01 -14.17,-16.03C-14.72,-15.56 -15.23,-15.05 -15.74,-14.5L-15.74,-18.97L-15.95,-18.97L-19.7,-17.67L-19.7,22.29L-15.74,22.29L-15.74,7.46C-15.06,8.12 -14.31,8.68 -13.49,9.15C-11.76,10.15 -9.84,10.66 -7.75,10.66C-5.35,10.66 -3.14,10.02 -1.12,8.75C0.9,7.47 2.51,5.68 3.7,3.33C4.91,1 5.5,-1.66 5.5,-4.64C5.5,-7.4 4.98,-9.89 3.96,-12.1Z" style="fill:white;fill-rule:nonzero;"/>
            </g>
            <g transform="matrix(1,0,0,1,93.67,78.51)">
                <path d="M0,-15.08L3.76,-16.37L3.97,-16.37L3.97,12.6L0,12.6L0,-15.08ZM-1.1,-24.5L1.98,-27.68L5.11,-24.5L1.98,-21.32L-1.1,-24.5Z" style="fill:white;fill-rule:nonzero;"/>
            </g>
            <g transform="matrix(1,0,0,1,119.33,56.13)">
                <path d="M0,33.31C-1.18,34.07 -2.3,34.65 -3.36,35.04C-4.42,35.44 -5.59,35.64 -6.88,35.64C-9.64,35.64 -11.41,34.91 -12.21,33.43C-13.01,31.96 -13.41,30.27 -13.41,28.37L-13.41,7.74L-17.64,7.74L-17.64,6.83L-13.68,6.56L-9.66,-2.33L-9.46,-2.33L-9.46,6.56L-0.22,6.56L-0.95,7.74L-9.46,7.74L-9.46,28.26C-9.46,29.73 -9.19,31.06 -8.65,32.24C-8.11,33.43 -6.9,34.02 -5.02,34.02C-4.36,34.02 -3.63,33.92 -2.83,33.7C-2.03,33.49 -1.23,33.15 -0.43,32.69L-0.01,33.33L0,33.31Z" style="fill:white;fill-rule:nonzero;"/>
            </g>
            <g transform="matrix(1,0,0,1,129.4,63.78)">
                <path d="M0,26.16C-1.6,26.16 -2.92,25.67 -3.96,24.71C-5,23.74 -5.53,22.34 -5.53,20.51C-5.53,18.68 -4.96,17.34 -3.83,16.29C-2.71,15.23 -1.18,14.44 0.76,13.92C2.57,13.44 4.85,13.05 7.62,12.76L7.62,22.64C6.65,23.64 5.57,24.45 4.39,25.05C2.89,25.8 1.43,26.18 0,26.18L0,26.16ZM14.2,26.26C13.37,26.26 12.76,26.11 12.4,25.8C12.04,25.5 11.81,25.08 11.72,24.53C11.64,24 11.59,23.2 11.59,22.17L11.59,8.38C11.59,4.94 10.82,2.39 9.27,0.74C7.73,-0.91 5.42,-1.74 2.36,-1.74C0.34,-1.74 -1.44,-1.37 -2.99,-0.66C-4.54,0.06 -6.06,1.14 -7.56,2.57L-7.08,3.17C-5.79,2.02 -4.53,1.18 -3.27,0.66C-2.02,0.15 -0.69,-0.11 0.74,-0.11C2.41,-0.11 3.75,0.24 4.76,0.94C5.76,1.64 6.5,2.63 6.95,3.93C7.41,5.22 7.63,6.86 7.63,8.83L7.63,11.99C5.07,12.19 3.3,12.34 2.36,12.44C-1.33,12.9 -4.23,13.89 -6.33,15.4C-8.43,16.91 -9.48,18.9 -9.48,21.37C-9.48,23.35 -8.81,24.93 -7.47,26.12C-6.13,27.3 -4.38,27.9 -2.22,27.9C-0.24,27.9 1.76,27.41 3.78,26.45C5.25,25.74 6.55,24.83 7.68,23.71C7.75,24.55 7.96,25.36 8.32,26.15C8.78,27.17 9.8,27.69 11.4,27.69C12.09,27.69 12.77,27.57 13.41,27.33C14.06,27.1 14.64,26.83 15.16,26.5L15.16,26.18C14.73,26.25 14.43,26.28 14.22,26.28L14.2,26.26Z" style="fill:white;fill-rule:nonzero;"/>
            </g>
            <g transform="matrix(1,0,0,1,148.19,89.72)">
                <path d="M0,-40.82L3.76,-42.22L3.97,-42.22L3.97,1.4L0,1.4L0,-40.82Z" style="fill:white;fill-rule:nonzero;"/>
            </g>
            <g transform="matrix(1,0,0,1,204.87,46.86)">
                <path d="M0,41.52C-0.8,40.94 -2.05,37.66 -3.8,37.67C-6.56,37.7 -7.5,37.59 -9.26,36.9C-11.01,36.22 -10.92,35.59 -13.06,32.97C-14.72,30.93 -16.62,31.23 -18.09,33.47C-19.13,35.07 -23.62,39.28 -24.47,37.3C-25.35,35.24 -23.48,29.54 -20.8,22.87C-19.93,20.68 -18.31,19.83 -16.31,20.79C-14.43,21.7 -13.63,23 -11.9,24.03C-10.64,24.77 -9.8,25.38 -8.31,25.05C-7.93,24.96 -7.73,24.53 -7.94,24.19C-8.33,23.58 -9.02,22.71 -9.8,22.19C-11.02,21.38 -12.35,18.61 -13.53,16.94C-15.75,13.79 -12.64,10.47 -13.8,6.81C-14.48,4.67 -13.61,3.07 -12.94,2.22C-12.58,1.78 -11.99,1.61 -11.46,1.8C-11.02,1.96 -9.47,2.68 -9.03,3.05C-7.1,4.7 -6.11,9.34 -3.08,16.72C-2.69,17.66 -0.89,17.43 -0.49,18.4L6.24,39.17C6.4,39.62 7.29,42.03 6.24,42.4C5.07,42.81 4.14,43.03 2.53,42.72C1.46,42.51 0.48,41.82 0.01,41.5L0,41.52ZM11.06,39.04L3.42,15L0.4,13.23L-5.34,0.34C-5.34,0.34 -6.11,-1.42 -8.09,-1.79C-8.54,-1.86 -9.94,-2.72 -10.33,-3.1C-13.1,-5.79 -14.27,-5.82 -16.27,-2.52C-18.33,0.88 -19.33,4.08 -21.73,7.19C-22.66,8.37 -23.2,8.7 -24.21,9.2C-25.17,9.67 -25.81,9.99 -26.19,11.05C-27.12,13.6 -29.78,24.46 -32.28,25.2C-33.07,25.43 -33.96,24.78 -34.83,27.52C-37.9,37.16 -37.56,43.25 -37.56,43.25C-37.26,44.93 -35.97,45.95 -33.56,45.64C-30.25,45.22 -29.24,42.03 -21.33,42.7C-16.51,43.1 -9.26,46.12 -5.88,46.7C-4.94,46.86 5.56,47.34 8.01,45.86C9.39,45.02 11.46,41.98 11.42,40.81C11.38,39.64 11.08,39.04 11.08,39.04L11.06,39.04Z" style="fill:white;fill-rule:nonzero;"/>
            </g>
            <g transform="matrix(-0.0395295,0.999218,0.999218,0.0395295,178.209,90.0902)">
                <path d="M3.148,-2.176C3.779,-2.181 3.934,-1.034 3.919,0.096C3.907,1.146 3.729,2.37 3.148,2.377C2.548,2.384 1.231,3.022 1.26,1.782C1.29,0.783 2.577,-2.169 3.148,-2.176" style="fill:white;fill-rule:nonzero;"/>
            </g>
            <g transform="matrix(-0.039443,0.999222,0.999222,0.039443,183.247,92.945)">
                <path d="M1.376,-1.023C1.697,-1.031 1.764,-0.447 1.762,0.113C1.761,0.633 1.667,1.25 1.376,1.259C1.076,1.267 0.543,1.326 0.558,0.706C0.577,0.206 1.096,-1.024 1.376,-1.023" style="fill:white;fill-rule:nonzero;"/>
            </g>
        </g>
    </g>
</svg>
