<?xml version="1.0" encoding="UTF-8"?>
<svg id="Layer_1" data-name="Layer 1" xmlns="http://www.w3.org/2000/svg" viewBox="0 0 180 180">
  <defs>
    <style>
      .cls-1 {
        fill: black;
        stroke-width: 0px;
      }
    </style>
  </defs>
  <path class="cls-1" d="m12.84,22.4h36.19l1.51,14.39h-19.77v107.29h19.77l-1.51,14.39H12.84V22.4Zm154.32,136.24h-36.19l-1.51-14.39h19.77V36.96h-19.77l1.51-14.39h36.19v136.08Zm-46.83-124.7c-.71-2.42-2.9-3.92-5.22-3.92-.87,0-1.76.2-2.6.66-15.92,8.61-51.08,37.81-61.55,62.95-8.05,19.33-8.25,33.46,12.91,56.25.53.59,1.2,1.04,1.91,1.35l1.94.81c.71.28,1.5.43,2.29.41,15.35-.51,25.54-3.23,32.87-8.2,7.54-5.07,12.1-12.48,16.14-22.31,4.79-11.48,6.54-27.27,6.54-42.65,0-18.23-2.47-35.96-5.25-45.35Zm-51.21,54.01c-3.59,18.72-6.21,8.3-8.86,41.71-6.6-16.04-5.83-28.65,6.85-42.7.79-.89,2.24-.15,2.01.99Zm1.96,51.16c.89-14.01,6.77-25.54,9.55-32.24,4.53-10.85,27.53-52.05,26.69-47.62-1.4,7.23-3.82,29.89-12.78,51.31-2.7,6.44-13.39,27.76-18.36,32.21-2.83,2.29-5.25-1.15-5.09-3.67Zm38.37-19.86c-4.61,11.05-9.04,19.28-21.06,23.89,1.02-1.22,1.96-2.42,2.85-3.64,6.37-8.68,10.16-17.75,12.2-22.71,3.92-9.4,8.76-27.73,12.63-46.14.25,17.82-1.45,36.24-6.62,48.61Z"/>
</svg>