<?xml version="1.0" encoding="UTF-8" standalone="no"?>
<!DOCTYPE svg PUBLIC "-//W3C//DTD SVG 1.1//EN" "http://www.w3.org/Graphics/SVG/1.1/DTD/svg11.dtd">
<svg width="100%" height="100%" viewBox="0 0 225 43" version="1.1" xmlns="http://www.w3.org/2000/svg" xmlns:xlink="http://www.w3.org/1999/xlink" xml:space="preserve" xmlns:serif="http://www.serif.com/" style="fill-rule:evenodd;clip-rule:evenodd;stroke-linejoin:round;stroke-miterlimit:2;">
    <g id="Layer_1-2">
        <g>
            <g>
                <path d="M0.11,29.47L0.3,29.47C2.16,30.4 5.31,30.99 7.17,30.99C9.73,30.99 11.51,30.06 11.51,27.76C11.51,22.6 0,25.13 0,15.81C0,11.99 2.6,7.98 9.09,7.98C11.32,7.98 13.95,8.46 15.4,9.09L15.73,13.66L15.58,13.66C13.87,12.99 11.5,12.47 9.68,12.47C6.75,12.47 5.41,13.51 5.41,15.36C5.41,20.22 16.95,17.96 16.95,27.2C16.95,30.76 14.83,35.55 7.56,35.55C4.96,35.55 1.58,34.81 0.47,34.1L0.1,29.46L0.11,29.47Z" style="fill:rgb(34,55,73);fill-rule:nonzero;"/>
                <path d="M20.67,35.11L20.67,8.43L30.43,8.43C38.52,8.43 40.67,11.84 40.67,16.89C40.67,20.53 38.89,23.13 35.96,24.57L41.6,35.11L35.4,35.11L30.8,25.79L26.42,25.79L26.42,35.11L20.67,35.11ZM29.95,21.38C32.73,21.38 34.74,20.08 34.74,16.96C34.74,13.84 33.18,13.03 30.55,13.03L26.43,13.03L26.43,21.38L29.96,21.38L29.95,21.38Z" style="fill:rgb(34,55,73);fill-rule:nonzero;"/>
                <path d="M45.36,8.43L62.21,8.43L62.21,13.07L51.11,13.07L51.11,20.23L60.65,20.23L60.65,24.68L51.11,24.68L51.11,35.11L45.36,35.11L45.36,8.43Z" style="fill:rgb(34,55,73);fill-rule:nonzero;"/>
            </g>
            <path d="M224.17,30.97L218.8,14.08L216.68,12.84L212.65,3.79C212.65,3.79 212.11,2.55 210.72,2.3C210.4,2.25 209.42,1.65 209.15,1.38C207.21,-0.51 206.38,-0.53 204.98,1.79C203.53,4.18 202.83,6.43 201.15,8.61C200.5,9.44 200.11,9.67 199.41,10.02C198.71,10.37 198.29,10.58 198.02,11.32C197.37,13.11 195.5,20.74 193.75,21.26C193.19,21.42 192.57,20.96 191.96,22.89C189.8,29.66 190.04,33.94 190.04,33.94C190.25,35.12 191.16,35.84 192.85,35.62C195.18,35.32 195.89,33.09 201.44,33.55C204.83,33.83 209.92,35.95 212.29,36.36C212.95,36.47 220.32,36.81 222.05,35.77C223.02,35.18 224.48,33.05 224.45,32.22C224.42,31.39 224.21,30.98 224.21,30.98L224.17,30.97ZM216.4,32.71C215.84,32.3 214.96,30 213.73,30C211.79,30.02 211.13,29.95 209.9,29.46C208.67,28.98 208.73,28.54 207.23,26.7C206.06,25.27 204.73,25.48 203.7,27.05C202.97,28.17 199.81,31.13 199.22,29.74C198.6,28.3 199.91,24.29 201.8,19.61C202.41,18.07 203.55,17.47 204.95,18.15C206.27,18.79 206.83,19.7 208.05,20.43C208.93,20.95 209.53,21.37 210.57,21.15C210.84,21.09 210.97,20.78 210.83,20.54C210.55,20.11 210.07,19.5 209.52,19.13C208.66,18.56 207.73,16.62 206.9,15.45C205.34,13.24 207.53,10.9 206.71,8.34C206.23,6.84 206.84,5.71 207.31,5.12C207.56,4.81 207.98,4.69 208.35,4.83C208.66,4.94 209.75,5.45 210.05,5.71C211.41,6.87 212.1,10.13 214.23,15.31C214.5,15.97 215.77,15.81 216.05,16.49L220.78,31.08C220.89,31.39 221.52,33.09 220.78,33.35C219.96,33.64 219.31,33.79 218.18,33.57C217.43,33.42 216.74,32.94 216.41,32.72L216.4,32.71Z" style="fill:rgb(34,55,73);fill-rule:nonzero;"/>
            <path d="M196.06,36.07C196.04,36.51 196.84,36.65 197.64,36.67C198.38,36.69 199.24,36.6 199.26,36.19C199.28,35.77 199.76,34.86 198.89,34.85C198.19,34.84 196.08,35.66 196.06,36.06L196.06,36.07Z" style="fill:rgb(34,55,73);fill-rule:nonzero;"/>
            <path d="M200.46,36.86C200.45,37.08 200.85,37.15 201.25,37.16C201.62,37.17 202.05,37.13 202.06,36.92C202.07,36.71 202.13,36.34 201.7,36.33C201.35,36.33 200.47,36.66 200.46,36.86Z" style="fill:rgb(34,55,73);fill-rule:nonzero;"/>
            <g>
                <path d="M79.38,33.41C77.46,32.3 75.96,30.74 74.86,28.73C73.76,26.72 73.21,24.36 73.21,21.66C73.21,18.96 73.79,16.53 74.95,14.44C76.11,12.35 77.7,10.74 79.72,9.59C81.75,8.44 84.02,7.87 86.56,7.87C88.63,7.87 90.52,8.25 92.22,9.01C93.92,9.77 95.32,10.81 96.43,12.14L94.88,13.55C93.87,11.96 92.62,10.71 91.15,9.81C89.68,8.91 88.08,8.45 86.34,8.45C84.43,8.45 82.74,8.98 81.24,10.04C79.74,11.1 78.58,12.57 77.75,14.45C76.92,16.33 76.5,18.48 76.5,20.89C76.5,23.47 76.96,25.72 77.89,27.65C78.82,29.58 80.09,31.07 81.71,32.12C83.32,33.17 85.13,33.69 87.14,33.69C88.95,33.69 90.65,33.27 92.26,32.42C93.86,31.58 95.23,30.27 96.37,28.51L96.8,28.76C95.57,30.76 94.03,32.31 92.19,33.41C90.35,34.51 88.23,35.06 85.84,35.06C83.45,35.06 81.3,34.5 79.38,33.4L79.38,33.41Z" style="fill:rgb(34,55,73);fill-rule:nonzero;"/>
                <path d="M99.27,33.8C98.34,33 97.88,31.94 97.88,30.62C97.88,28.96 98.61,27.62 100.07,26.61C101.53,25.6 103.54,24.93 106.09,24.62C106.84,24.55 108.31,24.43 110.5,24.26L110.5,24.77L110.1,24.81C108.03,25 106.32,25.27 104.98,25.62C103.64,25.97 102.58,26.5 101.8,27.21C101.02,27.92 100.62,28.87 100.62,30.05C100.62,31.23 100.98,32.22 101.71,32.87C102.43,33.52 103.35,33.85 104.46,33.85C105.45,33.85 106.46,33.6 107.5,33.09C108.54,32.58 109.45,31.86 110.25,30.92L110.61,31.28C109.65,32.46 108.46,33.38 107.07,34.03C105.67,34.68 104.28,35.01 102.91,35.01C101.41,35.01 100.2,34.61 99.28,33.82L99.27,33.8ZM110.21,33.82C109.9,33.13 109.74,32.42 109.74,31.67L109.74,22.19C109.74,20.86 109.58,19.77 109.27,18.9C108.96,18.03 108.45,17.36 107.75,16.89C107.05,16.42 106.12,16.19 104.96,16.19C103.97,16.19 103.04,16.36 102.17,16.71C101.3,17.06 100.42,17.62 99.53,18.39L99.2,17.99C100.24,17.03 101.29,16.3 102.37,15.82C103.44,15.34 104.68,15.1 106.08,15.1C108.2,15.1 109.8,15.66 110.87,16.76C111.94,17.87 112.48,19.58 112.48,21.9L112.48,31.16C112.48,31.86 112.51,32.39 112.57,32.75C112.63,33.11 112.79,33.39 113.04,33.6C113.29,33.81 113.71,33.91 114.29,33.91C114.43,33.91 114.65,33.89 114.94,33.84L114.94,34.06C114.58,34.28 114.17,34.46 113.73,34.62C113.28,34.78 112.82,34.86 112.34,34.86C111.23,34.86 110.52,34.52 110.21,33.83L110.21,33.82ZM110.79,25.05L111.55,25.05L111.08,27.62L110.68,27.62L110.79,25.05Z" style="fill:rgb(34,55,73);fill-rule:nonzero;"/>
                <path d="M117.34,16.05L119.94,15.18L120.08,15.18L120.08,42.89L117.33,42.89L117.33,16.05L117.34,16.05ZM118.39,25.05L119.15,25.05L118.68,27.62L118.28,27.62L118.39,25.05ZM121.64,34.06C120.43,33.39 119.43,32.43 118.64,31.2L120.09,30.84C120.6,31.97 121.32,32.87 122.26,33.52C123.2,34.17 124.25,34.5 125.41,34.5C126.66,34.5 127.77,34.11 128.74,33.34C129.7,32.57 130.46,31.48 131,30.09C131.54,28.69 131.81,27.04 131.81,25.13C131.81,23.22 131.55,21.64 131.03,20.3C130.51,18.96 129.79,17.94 128.88,17.23C127.96,16.52 126.93,16.16 125.77,16.16C125.05,16.16 124.31,16.3 123.55,16.58C122.79,16.86 122.05,17.28 121.34,17.85C120.63,18.42 120,19.1 119.44,19.89L118.97,19.53C119.64,18.61 120.38,17.82 121.18,17.16C121.98,16.5 122.83,15.99 123.75,15.64C124.67,15.29 125.62,15.12 126.61,15.12C128.15,15.12 129.55,15.53 130.81,16.35C132.06,17.17 133.05,18.32 133.76,19.8C134.47,21.28 134.83,22.95 134.83,24.81C134.83,26.81 134.41,28.6 133.58,30.16C132.75,31.73 131.63,32.94 130.23,33.8C128.83,34.66 127.3,35.08 125.64,35.08C124.19,35.08 122.87,34.74 121.66,34.07L121.64,34.06Z" style="fill:rgb(34,55,73);fill-rule:nonzero;"/>
                <path d="M137.38,9.72L139.51,7.59L141.68,9.72L139.51,11.85L137.38,9.72ZM138.13,16.05L140.73,15.18L140.87,15.18L140.87,34.64L138.12,34.64L138.12,16.05L138.13,16.05Z" style="fill:rgb(34,55,73);fill-rule:nonzero;"/>
                <path d="M147.47,33.59C146.92,32.6 146.64,31.47 146.64,30.19L146.64,15.87L147.22,16.34L143.71,16.34L143.71,15.73L146.46,15.55L149.25,9.58L149.39,9.58L149.39,15.69L148.81,15.54L155.79,15.54L155.28,16.34L148.81,16.34L149.39,15.87L149.39,30.12C149.39,31.11 149.58,32 149.95,32.8C150.32,33.6 151.16,33.99 152.46,33.99C152.92,33.99 153.42,33.92 153.98,33.77C154.53,33.63 155.09,33.4 155.64,33.08L155.93,33.51C155.11,34.02 154.33,34.4 153.6,34.67C152.86,34.94 152.05,35.07 151.16,35.07C149.25,35.07 148.02,34.58 147.47,33.59Z" style="fill:rgb(34,55,73);fill-rule:nonzero;"/>
                <path d="M157.72,33.8C156.79,33 156.33,31.94 156.33,30.62C156.33,28.96 157.06,27.62 158.52,26.61C159.98,25.6 161.99,24.93 164.54,24.62C165.29,24.55 166.76,24.43 168.95,24.26L168.95,24.77L168.55,24.81C166.48,25 164.77,25.27 163.43,25.62C162.09,25.97 161.03,26.5 160.25,27.21C159.47,27.92 159.07,28.87 159.07,30.05C159.07,31.23 159.43,32.22 160.16,32.87C160.88,33.52 161.8,33.85 162.91,33.85C163.9,33.85 164.91,33.6 165.95,33.09C166.99,32.58 167.9,31.86 168.7,30.92L169.06,31.28C168.1,32.46 166.91,33.38 165.52,34.03C164.12,34.68 162.73,35.01 161.36,35.01C159.86,35.01 158.65,34.61 157.73,33.82L157.72,33.8ZM168.66,33.82C168.35,33.13 168.19,32.42 168.19,31.67L168.19,22.19C168.19,20.86 168.03,19.77 167.72,18.9C167.41,18.03 166.9,17.36 166.2,16.89C165.5,16.42 164.57,16.19 163.41,16.19C162.42,16.19 161.49,16.36 160.62,16.71C159.75,17.06 158.87,17.62 157.98,18.39L157.65,17.99C158.69,17.03 159.74,16.3 160.82,15.82C161.89,15.34 163.13,15.1 164.53,15.1C166.65,15.1 168.25,15.66 169.32,16.76C170.39,17.87 170.93,19.58 170.93,21.9L170.93,31.16C170.93,31.86 170.96,32.39 171.02,32.75C171.08,33.11 171.24,33.39 171.49,33.6C171.74,33.81 172.16,33.91 172.74,33.91C172.88,33.91 173.1,33.89 173.39,33.84L173.39,34.06C173.03,34.28 172.62,34.46 172.18,34.62C171.73,34.78 171.27,34.86 170.79,34.86C169.68,34.86 168.97,34.52 168.66,33.83L168.66,33.82ZM169.24,25.05L170,25.05L169.53,27.62L169.13,27.62L169.24,25.05Z" style="fill:rgb(34,55,73);fill-rule:nonzero;"/>
                <path d="M175.93,6.28L178.53,5.34L178.67,5.34L178.67,34.64L175.92,34.64L175.92,6.28L175.93,6.28Z" style="fill:rgb(34,55,73);fill-rule:nonzero;"/>
            </g>
        </g>
    </g>
</svg>
