<?xml version="1.0" encoding="UTF-8" standalone="no"?>
<!DOCTYPE svg PUBLIC "-//W3C//DTD SVG 1.1//EN" "http://www.w3.org/Graphics/SVG/1.1/DTD/svg11.dtd">
<svg width="100%" height="100%" viewBox="0 0 208 104" version="1.1" xmlns="http://www.w3.org/2000/svg" xmlns:xlink="http://www.w3.org/1999/xlink" xml:space="preserve" xmlns:serif="http://www.serif.com/" style="fill-rule:evenodd;clip-rule:evenodd;stroke-linejoin:round;stroke-miterlimit:2;">
    <g id="Artboard1" transform="matrix(1,0,0,1,-20,133.63)">
        <rect x="20" y="-133.63" width="207.104" height="103.37" style="fill:none;"/>
        <g id="Layer-1" serif:id="Layer 1" transform="matrix(1,0,0,1,100.726,130.21)">
            <g>
                <g transform="matrix(1,0,0,1,-79.5758,-254.629)">
                    <path d="M0,22.32L0.26,22.32C2.83,23.67 7.21,24.53 9.79,24.53C13.34,24.53 15.81,23.18 15.81,19.85C15.81,12.37 -0.15,16.03 -0.15,2.52C-0.15,-3.02 3.45,-8.84 12.47,-8.84C15.56,-8.84 19.22,-8.14 21.22,-7.22L21.68,-0.6L21.47,-0.6C19.1,-1.57 15.8,-2.32 13.28,-2.32C9.21,-2.32 7.36,-0.81 7.36,1.88C7.36,8.93 23.38,5.65 23.38,19.05C23.38,24.22 20.44,31.16 10.35,31.16C6.75,31.16 2.06,30.08 0.51,29.06L0,22.33L0,22.32Z" style="fill:white;fill-rule:nonzero;"/>
                </g>
                <g transform="matrix(1,0,0,1,-38.1758,-242.919)">
                    <path d="M0,-1.13C3.86,-1.13 6.64,-3.01 6.64,-7.54C6.64,-12.07 4.48,-13.25 0.82,-13.25L-4.9,-13.25L-4.9,-1.14L-0.01,-1.14L0,-1.13ZM-12.87,18.79L-12.87,-19.92L0.67,-19.92C11.9,-19.92 14.88,-14.97 14.88,-7.65C14.88,-2.37 12.41,1.39 8.34,3.49L16.17,18.78L7.57,18.78L1.18,5.27L-4.9,5.27L-4.9,18.78L-12.88,18.78L-12.87,18.79Z" style="fill:white;fill-rule:nonzero;"/>
                </g>
                <g transform="matrix(1,0,0,1,-16.7958,-224.119)">
                    <path d="M0,-38.71L23.38,-38.71L23.38,-31.98L7.98,-31.98L7.98,-21.59L21.22,-21.59L21.22,-15.13L7.98,-15.13L7.98,0L0,0L0,-38.71" style="fill:white;fill-rule:nonzero;"/>
                </g>
                <g transform="matrix(1,0,0,1,-79.7258,-223.849)">
                    <rect x="2.67" y="12.28" width="4.22" height="39.19" style="fill:white;"/>
                </g>
                <g transform="matrix(1,0,0,1,-25.5558,-182.449)">
                    <path d="M0,-8.93L0,10.07L-3.92,10.07L-3.92,-8.83C-3.92,-10.98 -4.3,-12.93 -5.05,-14.67C-5.81,-16.41 -7.58,-17.28 -10.36,-17.28C-11.42,-17.28 -12.42,-17.11 -13.37,-16.77C-14.31,-16.43 -15.27,-15.89 -16.23,-15.15C-17.06,-14.52 -17.93,-13.71 -18.83,-12.74C-18.57,-11.62 -18.44,-10.35 -18.44,-8.93L-18.44,10.07L-22.35,10.07L-22.35,-8.83C-22.35,-10.98 -22.74,-12.93 -23.51,-14.67C-24.29,-16.41 -26.05,-17.28 -28.79,-17.28C-29.89,-17.28 -30.92,-17.11 -31.88,-16.77C-32.84,-16.43 -33.8,-15.89 -34.74,-15.15C-35.44,-14.61 -36.17,-13.94 -36.93,-13.15L-36.93,10.07L-40.84,10.07L-40.84,-17.6L-37.13,-18.89L-36.93,-18.89L-36.93,-14.2C-36.13,-14.98 -35.39,-15.66 -34.69,-16.23C-33.61,-17.11 -32.45,-17.79 -31.21,-18.28C-29.98,-18.76 -28.6,-19 -27.09,-19C-24.24,-19 -22.09,-18.17 -20.63,-16.5C-19.96,-15.73 -19.44,-14.79 -19.08,-13.66C-18.11,-14.68 -17.18,-15.54 -16.3,-16.23C-15.19,-17.11 -14,-17.79 -12.75,-18.28C-11.5,-18.76 -10.12,-19 -8.6,-19C-5.79,-19 -3.65,-18.17 -2.19,-16.5C-0.73,-14.83 0,-12.31 0,-8.93Z" style="fill:white;fill-rule:nonzero;"/>
                </g>
                <g transform="matrix(1,0,0,1,-0.245802,-182.389)">
                    <path d="M0,3.23C-0.78,5.31 -1.85,6.92 -3.22,8.07C-4.6,9.22 -6.18,9.8 -7.96,9.8C-9.61,9.8 -11.1,9.31 -12.44,8.34C-13.78,7.37 -14.81,6.05 -15.53,4.36L-15.53,-13.19C-14.99,-13.86 -14.4,-14.46 -13.75,-15C-12.74,-15.84 -11.69,-16.47 -10.61,-16.88C-9.53,-17.29 -8.48,-17.5 -7.45,-17.5C-5.8,-17.5 -4.32,-16.97 -3.02,-15.91C-1.71,-14.85 -0.69,-13.33 0.05,-11.34C0.79,-9.34 1.15,-6.95 1.15,-4.15C1.15,-1.35 0.77,1.15 0,3.23ZM3.91,-12.09C2.9,-14.3 1.5,-16.01 -0.29,-17.23C-2.07,-18.45 -4.06,-19.06 -6.26,-19.06C-7.67,-19.06 -9.02,-18.8 -10.33,-18.28C-11.63,-17.76 -12.85,-17.01 -13.99,-16.02C-14.52,-15.55 -15.04,-15.04 -15.53,-14.49L-15.53,-18.95L-15.74,-18.95L-19.44,-17.66L-19.44,22.29L-15.53,22.29L-15.53,7.46C-14.86,8.12 -14.12,8.68 -13.32,9.15C-11.6,10.15 -9.71,10.66 -7.65,10.66C-5.28,10.66 -3.1,10.02 -1.11,8.75C0.88,7.47 2.47,5.67 3.65,3.33C4.84,1 5.43,-1.65 5.43,-4.63C5.43,-7.4 4.92,-9.88 3.91,-12.09" style="fill:white;fill-rule:nonzero;"/>
                </g>
                <g transform="matrix(1,0,0,1,16.7142,-199.729)">
                    <path d="M0,26.17C-1.58,26.17 -2.88,25.68 -3.91,24.71C-4.94,23.74 -5.45,22.34 -5.45,20.51C-5.45,18.68 -4.9,17.35 -3.78,16.29C-2.66,15.23 -1.15,14.44 0.75,13.92C2.55,13.43 4.8,13.04 7.52,12.76L7.52,22.62C6.57,23.63 5.51,24.44 4.33,25.04C2.85,25.79 1.41,26.17 0,26.17ZM14.01,26.27C13.19,26.27 12.6,26.12 12.24,25.82C11.87,25.51 11.65,25.09 11.57,24.55C11.48,24.01 11.44,23.22 11.44,22.18L11.44,8.4C11.44,4.95 10.67,2.41 9.15,0.75C7.62,-0.9 5.34,-1.72 2.32,-1.72C0.33,-1.72 -1.43,-1.36 -2.96,-0.65C-4.48,0.07 -5.99,1.15 -7.46,2.58L-7,3.18C-5.73,2.03 -4.48,1.19 -3.24,0.67C-2,0.15 -0.68,-0.11 0.73,-0.11C2.37,-0.11 3.69,0.24 4.69,0.94C5.69,1.64 6.41,2.64 6.85,3.93C7.3,5.22 7.52,6.86 7.52,8.83L7.52,11.99C4.99,12.19 3.26,12.34 2.32,12.44C-1.32,12.9 -4.18,13.89 -6.25,15.4C-8.33,16.91 -9.37,18.9 -9.37,21.37C-9.37,23.35 -8.71,24.93 -7.39,26.11C-6.06,27.3 -4.34,27.89 -2.21,27.89C-0.25,27.89 1.72,27.4 3.71,26.44C5.15,25.74 6.44,24.82 7.56,23.7C7.64,24.54 7.85,25.35 8.19,26.14C8.64,27.16 9.65,27.67 11.23,27.67C11.92,27.67 12.58,27.56 13.21,27.32C13.85,27.09 14.42,26.81 14.94,26.49L14.94,26.17C14.53,26.24 14.22,26.27 14.01,26.27Z" style="fill:white;fill-rule:nonzero;"/>
                </g>
                <g transform="matrix(1,0,0,1,39.2242,-199.609)">
                    <path d="M0,26.05C-1.89,24.83 -3.37,23.12 -4.45,20.91C-5.53,18.7 -6.07,16.15 -6.07,13.24C-6.07,10.33 -5.49,7.72 -4.32,5.41C-3.15,3.1 -1.57,1.31 0.42,0.05C2.41,-1.21 4.61,-1.83 7.01,-1.83C9.28,-1.83 11.27,-1.42 12.98,-0.59C14.7,0.24 16.14,1.47 17.31,3.12L15.4,4.84C14.23,2.9 13,1.43 11.69,0.43C10.38,-0.57 8.89,-1.08 7.21,-1.08C5.53,-1.08 3.95,-0.52 2.58,0.59C1.21,1.7 0.13,3.28 -0.64,5.33C-1.41,7.38 -1.8,9.73 -1.8,12.38C-1.8,15.18 -1.38,17.59 -0.54,19.62C0.3,21.65 1.46,23.2 2.94,24.28C4.42,25.36 6.08,25.89 7.94,25.89C9.59,25.89 11.24,25.43 12.88,24.52C14.53,23.6 15.9,22.29 17,20.56L17.62,20.94C16.28,23.13 14.67,24.84 12.78,26.05C10.89,27.27 8.76,27.88 6.39,27.88C4.02,27.88 1.89,27.27 0,26.05Z" style="fill:white;fill-rule:nonzero;"/>
                </g>
                <g transform="matrix(1,0,0,1,75.6342,-207.369)">
                    <path d="M0,33.32C-1.17,34.08 -2.28,34.65 -3.32,35.04C-4.37,35.44 -5.53,35.64 -6.8,35.64C-9.51,35.64 -11.26,34.9 -12.05,33.43C-12.84,31.96 -13.24,30.27 -13.24,28.37L-13.24,7.75L-17.41,7.75L-17.41,6.83L-13.5,6.56L-9.53,-2.32L-9.32,-2.32L-9.32,6.56L-0.21,6.56L-0.93,7.75L-9.32,7.75L-9.32,28.26C-9.32,29.73 -9.06,31.06 -8.53,32.24C-7.99,33.43 -6.8,34.02 -4.95,34.02C-4.29,34.02 -3.57,33.91 -2.78,33.7C-1.99,33.48 -1.2,33.14 -0.41,32.68L0,33.32Z" style="fill:white;fill-rule:nonzero;"/>
                </g>
                <g transform="matrix(1,0,0,1,121.074,-168.369)">
                    <path d="M0,3.47C-0.17,3.85 -1.07,4.46 -2.44,4.68L-25.32,4.68C-26.26,4.54 -28.21,3.82 -27.69,3.21C-27,2.41 -24.36,0.81 -22.38,0.74C-21.05,0.69 -18.13,1.53 -18.04,1.56C-15.56,1.87 -14.55,1.67 -13.82,1.53C-13.04,1.37 -9.33,-0.12 -8.78,-0.3C-7.08,-0.88 -7.5,-1.21 -5.14,-0.85C-4.13,-0.69 -4.12,-0.44 -3.32,0.17C-2.05,0.15 -1.36,1.29 -0.71,1.74C0.17,2.34 0.35,2.67 0,3.48L0,3.47Z" style="fill:white;fill-rule:nonzero;"/>
                </g>
                <g transform="matrix(-0.0369398,0.999317,0.999317,0.0369398,87.5992,-168.782)">
                    <path d="M2.795,-2.433C3.485,-2.438 3.657,-1.391 3.649,-0.36C3.644,0.59 3.426,2.703 2.795,2.71C2.144,2.716 1.468,1.51 1.49,0.38C1.504,-0.53 2.175,-2.436 2.795,-2.433Z" style="fill:white;fill-rule:nonzero;"/>
                </g>
                <g transform="matrix(1,0,0,1,125.514,-163.829)">
                    <path d="M0,-2.06C-1.05,-2.08 -2.65,-1.62 -2.64,-1.1C-2.63,-0.6 -0.87,0.02 0.05,-0.02C0.9,-0.06 1.78,-0.18 1.86,-0.89C1.93,-1.45 0.96,-2.04 -0.01,-2.06L0,-2.06Z" style="fill:white;fill-rule:nonzero;"/>
                </g>
                <g transform="matrix(1,0,0,1,91.1542,-163.819)">
                    <path d="M0,1.21C0.44,1.18 0.98,1.31 1.06,0.8C1.13,0.35 0.55,-0.1 -0.05,-0.03C-0.62,0.04 -1.37,0.02 -1.51,0.62C-1.6,1.02 -0.87,1.2 -0.01,1.21L0,1.21Z" style="fill:white;fill-rule:nonzero;"/>
                </g>
                <g transform="matrix(1,0,0,1,116.854,-207.079)">
                    <path d="M0,21.99C-1.81,26.33 -3.55,29.56 -8.27,31.37C-7.87,30.89 -7.5,30.42 -7.15,29.94C-4.65,26.53 -3.16,22.97 -2.36,21.02C-0.82,17.33 1.08,10.13 2.6,2.9C2.7,9.9 2.03,17.13 0,21.99ZM-15.07,29.79C-14.72,24.29 -12.41,19.76 -11.32,17.13C-9.54,12.87 -0.51,-3.31 -0.84,-1.57C-1.39,1.27 -2.34,10.17 -5.86,18.58C-6.92,21.11 -11.12,29.48 -13.07,31.23C-14.18,32.13 -15.13,30.78 -15.07,29.79ZM-15.84,9.7C-17.25,17.05 -18.28,12.96 -19.32,26.08C-21.91,19.78 -21.61,14.83 -16.63,9.31C-16.32,8.96 -15.75,9.25 -15.84,9.7M4.27,-11.51C3.99,-12.46 3.13,-13.05 2.22,-13.05C1.88,-13.05 1.53,-12.97 1.2,-12.79C-5.05,-9.41 -18.86,2.06 -22.97,11.93C-26.13,19.52 -26.21,25.07 -17.9,34.02C-17.69,34.25 -17.43,34.43 -17.15,34.55L-16.39,34.87C-16.11,34.98 -15.8,35.04 -15.49,35.03C-9.46,34.83 -5.46,33.76 -2.58,31.81C0.38,29.82 2.17,26.91 3.76,23.05C5.64,18.54 6.33,12.34 6.33,6.3C6.33,-0.86 5.36,-7.82 4.27,-11.51Z" style="fill:white;fill-rule:nonzero;"/>
                </g>
            </g>
        </g>
    </g>
</svg>
