<?xml version="1.0" encoding="UTF-8"?>
<svg id="Layer_1" data-name="Layer 1" xmlns="http://www.w3.org/2000/svg" viewBox="0 0 180 180">
  <defs>
    <style>
      .cls-1 {
        fill: #223749;
        stroke-width: 0px;
      }
    </style>
  </defs>
  <path class="cls-1" d="m130.57,22.89l-1.51,14.4h19.77v93.55l-16.36-51.45-7.62-4.45-14.47-32.46s-1.93-4.43-6.93-5.36c-1.13-.19-4.67-2.35-5.64-3.31-6.97-6.78-9.94-6.85-14.98,1.47-5.2,8.57-7.7,16.63-13.76,24.47-2.33,2.98-3.71,3.8-6.25,5.05-2.42,1.19-4.02,2-4.98,4.66-2.34,6.42-9.04,33.8-15.34,35.65-1.99.57-4.23-1.06-6.43,5.85-2.45,7.72-4.05,14.52-5.07,20.23V37.12h19.77l-1.5-14.39H13.08v136.08h24.48l12.41-6.74c4.2-2.01,9.86-3.73,20.11-2.87,12.15,1.03,30.4,8.62,38.93,10.08,1.85.32,18.37,1.12,28.46-.32h29.3V22.89h-36.19Zm8.97,125.58c-2.94,1.04-5.29,1.59-9.34.81-.23-.05-.45-.1-.68-.16-2.42-.67-4.59-2.19-5.66-2.9-2-1.47-5.15-9.72-9.57-9.71-6.94.07-9.31-.19-13.74-1.94-4.41-1.72-4.18-3.3-9.57-9.89-4.18-5.13-8.97-4.37-12.66,1.27-2.63,4.02-13.95,14.65-16.08,9.66-2.23-5.18,2.49-19.55,9.26-36.35,2.2-5.52,6.26-7.65,11.3-5.23,4.75,2.31,6.76,5.56,11.11,8.16,3.16,1.87,5.29,3.39,9.03,2.58.96-.21,1.45-1.32.92-2.17-.98-1.55-2.71-3.74-4.69-5.04-3.07-2.05-6.42-9.02-9.39-13.22-5.61-7.92,2.25-16.3-.68-25.52-1.71-5.38.47-9.42,2.16-11.55.9-1.11,2.4-1.54,3.72-1.06,1.11.41,5.02,2.23,6.11,3.16,4.87,4.16,7.37,15.85,15,34.43.98,2.37,5.52,1.79,6.52,4.23l16.97,52.32c.2.58.88,2.43,1.16,4.25.25,1.73.12,3.42-1.19,3.89Zm-78.48,5.43c3.13.05,1.4,3.29,1.32,4.8-.08,1.47-3.18,1.8-5.82,1.72-2.85-.08-5.74-.57-5.65-2.17.07-1.44,7.64-4.39,10.15-4.36Zm10.04,5.31c1.57.02,1.34,1.36,1.3,2.12-.04.74-1.59.9-2.91.86-1.42-.04-2.87-.29-2.83-1.08.04-.72,3.18-1.92,4.44-1.9Z"/>
</svg>