<?xml version="1.0" encoding="UTF-8" standalone="no"?>
<!DOCTYPE svg PUBLIC "-//W3C//DTD SVG 1.1//EN" "http://www.w3.org/Graphics/SVG/1.1/DTD/svg11.dtd">
<svg width="100%" height="100%" viewBox="0 0 14 22" version="1.1" xmlns="http://www.w3.org/2000/svg" xmlns:xlink="http://www.w3.org/1999/xlink" xml:space="preserve" xmlns:serif="http://www.serif.com/" style="fill-rule:evenodd;clip-rule:evenodd;stroke-linejoin:round;stroke-miterlimit:2;">
    <g id="Layer_1-2">
        <g>
            <g>
                <path d="M13.31,12.07L11.22,5.49L10.39,5.01L8.82,1.48C8.82,1.48 8.61,1 8.07,0.9C7.95,0.88 7.56,0.65 7.46,0.54C6.7,-0.2 6.38,-0.2 5.83,0.7C5.27,1.63 4.99,2.51 4.34,3.36C4.09,3.68 3.94,3.77 3.66,3.91C3.38,4.05 3.22,4.13 3.12,4.42C2.87,5.12 2.14,8.09 1.45,8.29C1.23,8.35 0.99,8.17 0.75,8.93C-0.09,11.56 0,13.23 0,13.23C0.08,13.69 0.44,13.97 1.09,13.89C2,13.77 2.27,12.9 4.44,13.08C5.76,13.19 7.74,14.02 8.67,14.17C8.93,14.21 11.8,14.35 12.47,13.94C12.85,13.71 13.42,12.88 13.4,12.56C13.38,12.24 13.31,12.08 13.31,12.08L13.31,12.07ZM10.29,12.75C10.07,12.59 9.73,11.69 9.25,11.7C8.5,11.7 8.24,11.68 7.76,11.49C7.28,11.3 7.31,11.13 6.72,10.41C6.27,9.85 5.74,9.93 5.34,10.55C5.05,10.99 3.83,12.14 3.59,11.6C3.35,11.04 3.86,9.48 4.6,7.65C4.84,7.05 5.28,6.82 5.83,7.08C6.35,7.33 6.56,7.68 7.04,7.97C7.38,8.17 7.62,8.34 8.02,8.25C8.12,8.23 8.18,8.11 8.12,8.01C8.01,7.84 7.83,7.6 7.61,7.46C7.28,7.24 6.91,6.48 6.59,6.02C5.98,5.16 6.83,4.25 6.52,3.25C6.33,2.66 6.57,2.23 6.76,1.99C6.86,1.87 7.02,1.82 7.16,1.88C7.28,1.92 7.71,2.12 7.82,2.22C8.35,2.67 8.62,3.94 9.45,5.96C9.56,6.22 10.05,6.15 10.16,6.42L12,12.1C12.04,12.22 12.29,12.88 12,12.98C11.68,13.09 11.43,13.15 10.99,13.07C10.7,13.01 10.43,12.82 10.3,12.74L10.29,12.75Z" style="fill:rgb(34,55,73);fill-rule:nonzero;"/>
                <path d="M2.36,14.06C2.36,14.23 2.67,14.29 2.97,14.3C3.26,14.3 3.59,14.27 3.6,14.11C3.6,13.95 3.8,13.59 3.46,13.59C3.19,13.59 2.36,13.91 2.36,14.06Z" style="fill:rgb(34,55,73);fill-rule:nonzero;"/>
                <path d="M4.07,14.37C4.07,14.46 4.22,14.48 4.38,14.49C4.52,14.49 4.69,14.48 4.7,14.4C4.7,14.32 4.73,14.17 4.56,14.17C4.42,14.17 4.08,14.3 4.08,14.38L4.07,14.37Z" style="fill:rgb(34,55,73);fill-rule:nonzero;"/>
            </g>
            <g>
                <path d="M0.57,20.11L0.61,20.11C0.98,20.29 1.6,20.41 1.97,20.41C2.48,20.41 2.83,20.23 2.83,19.77C2.83,18.75 0.55,19.25 0.55,17.4C0.55,16.64 1.06,15.85 2.35,15.85C2.79,15.85 3.31,15.95 3.6,16.07L3.67,16.97L3.64,16.97C3.3,16.84 2.83,16.73 2.47,16.73C1.89,16.73 1.62,16.94 1.62,17.3C1.62,18.26 3.91,17.81 3.91,19.64C3.91,20.35 3.49,21.29 2.05,21.29C1.54,21.29 0.87,21.14 0.65,21L0.58,20.08L0.57,20.11Z" style="fill:rgb(34,55,73);fill-rule:nonzero;"/>
                <path d="M4.64,21.24L4.64,15.95L6.57,15.95C8.17,15.95 8.6,16.63 8.6,17.63C8.6,18.35 8.25,18.86 7.67,19.15L8.79,21.24L7.56,21.24L6.65,19.4L5.78,19.4L5.78,21.24L4.64,21.24ZM6.48,18.51C7.03,18.51 7.43,18.25 7.43,17.64C7.43,17.03 7.12,16.86 6.6,16.86L5.78,16.86L5.78,18.51L6.48,18.51Z" style="fill:rgb(34,55,73);fill-rule:nonzero;"/>
                <path d="M9.53,15.94L12.87,15.94L12.87,16.86L10.67,16.86L10.67,18.28L12.56,18.28L12.56,19.16L10.67,19.16L10.67,21.23L9.53,21.23L9.53,15.94Z" style="fill:rgb(34,55,73);fill-rule:nonzero;"/>
            </g>
        </g>
    </g>
</svg>
