<?xml version="1.0" encoding="UTF-8" standalone="no"?>
<!DOCTYPE svg PUBLIC "-//W3C//DTD SVG 1.1//EN" "http://www.w3.org/Graphics/SVG/1.1/DTD/svg11.dtd">
<svg width="100%" height="100%" viewBox="0 0 256 256" version="1.1" xmlns="http://www.w3.org/2000/svg" xmlns:xlink="http://www.w3.org/1999/xlink" xml:space="preserve" xmlns:serif="http://www.serif.com/" style="fill-rule:evenodd;clip-rule:evenodd;stroke-linejoin:round;stroke-miterlimit:2;">
    <g transform="matrix(1,0,0,1,33.2123,0)">
        <g transform="matrix(17.415,0,0,17.415,-10.6697,0)">
            <path d="M9.85,14.1C9.81,14.2 9.58,14.35 9.23,14.41L3.38,14.41C3.14,14.38 2.64,14.19 2.78,14.03C2.96,13.83 3.63,13.42 4.14,13.4C4.48,13.39 5.22,13.6 5.25,13.61C5.88,13.69 6.14,13.64 6.33,13.61C6.53,13.57 7.48,13.19 7.62,13.14C8.05,12.99 7.95,12.91 8.55,13C8.81,13.04 8.81,13.11 9.01,13.26C9.33,13.26 9.51,13.55 9.68,13.66C9.91,13.81 9.95,13.9 9.86,14.1L9.85,14.1Z" style="fill:#e74c34;fill-rule:nonzero;"/>
        </g>
        <g transform="matrix(17.415,0,0,17.415,-10.6697,0)">
            <path d="M0.65,13.8C0.65,13.98 0.91,14.03 1.17,14.04C1.41,14.04 1.96,14.01 1.96,13.85C1.96,13.68 1.67,13.5 1.38,13.49C1.15,13.49 0.66,13.64 0.65,13.8Z" style="fill:#e74c34;fill-rule:nonzero;"/>
        </g>
        <g transform="matrix(17.415,0,0,17.415,-10.6697,0)">
            <path d="M10.98,13.85C10.71,13.85 10.3,13.96 10.31,14.09C10.31,14.22 10.76,14.38 11,14.36C11.22,14.35 11.44,14.32 11.46,14.14C11.48,14 11.23,13.85 10.98,13.84L10.98,13.85Z" style="fill:#e74c34;fill-rule:nonzero;"/>
        </g>
        <g transform="matrix(17.415,0,0,17.415,-10.6697,0)">
            <path d="M2.21,14.69C2.32,14.69 2.46,14.72 2.48,14.59C2.5,14.48 2.35,14.36 2.2,14.38C2.05,14.4 1.86,14.39 1.83,14.55C1.81,14.65 1.99,14.7 2.21,14.7L2.21,14.69Z" style="fill:#e74c34;fill-rule:nonzero;"/>
        </g>
        <g transform="matrix(17.415,0,0,17.415,-10.6697,0)">
            <path d="M9.86,0.39C9.79,0.15 9.57,0 9.34,0C9.25,0 9.16,0.02 9.08,0.07C7.48,0.93 3.96,3.86 2.91,6.38C2.1,8.32 2.08,9.74 4.2,12.02C4.25,12.08 4.32,12.12 4.39,12.16L4.58,12.24C4.65,12.27 4.73,12.28 4.81,12.28C6.35,12.23 7.37,11.96 8.11,11.46C8.87,10.95 9.32,10.21 9.73,9.22C10.21,8.07 10.39,6.49 10.39,4.94C10.39,3.11 10.14,1.33 9.86,0.39ZM4.73,5.81C4.37,7.69 4.11,6.64 3.84,9.99C3.18,8.38 3.26,7.12 4.53,5.71C4.61,5.62 4.75,5.69 4.73,5.81ZM4.92,10.94C5.01,9.54 5.6,8.38 5.88,7.71C6.33,6.62 8.64,2.49 8.56,2.94C8.42,3.67 8.18,5.94 7.28,8.09C7.01,8.74 5.94,10.87 5.44,11.32C5.16,11.55 4.91,11.21 4.93,10.95L4.92,10.94ZM8.77,8.95C8.31,10.06 7.86,10.88 6.66,11.35C6.76,11.23 6.86,11.11 6.95,10.98C7.59,10.11 7.97,9.2 8.17,8.7C8.56,7.76 9.05,5.92 9.44,4.07C9.47,5.86 9.29,7.7 8.78,8.94L8.77,8.95Z" style="fill:#e74c34;fill-rule:nonzero;"/>
        </g>
    </g>
</svg>
